<?xml version="1.0" standalone="yes"?>
<svg xmlns="http://www.w3.org/2000/svg" width="800" height="406">
<path style="fill:#ead180; stroke:none;" d="M0 0L0 406L800 406L800 0L0 0z"/>
<path style="fill:#432e1a; stroke:none;" d="M17 18L17 385L109 385.004L119 385.91L132 386L190 385.004L205 386L235 385.961L246 385.004L395 385L395 79L395.961 66L396 45L395.09 33L395 19L219 19L130 18.9962L118 18.0146L17 18M402 19L402 385L781 385L781 18L755 18.0394L743 18.9992L402 19z"/>
<path style="fill:#ead180; stroke:none;" d="M21 22L22.0278 29.142L30 30.9962L49 30C41.7936 37.561 30.2475 34.0061 21 34L21.0008 45.9992C21.0141 47.9248 20.6963 50.5448 22.0278 52.1428C23.5545 53.975 26.8429 54.1838 29 54.7307C35.0902 56.2749 41.715 56.9689 48 56.9992C66.3016 57.0875 83.6515 51.6009 100 43.5609C108.262 39.498 115.887 34.3178 124 30L110 42L110 44L136 49.8302L161 49.1659L169.91 48.0409L177.039 45.7006L187 43.3395L206 34.5717L222 25C215.591 34.0983 205.42 41.9987 195 46L195 48C210.234 53.6801 226.154 56.1648 242 51.2538C247.847 49.4419 253.494 46.7563 259 44.1142C261.409 42.9581 264.231 40.615 267 40.5972C269.488 40.5812 271.26 42.4788 273 43.9915C275.232 45.932 277.307 47.7585 280 49.0455C290.908 54.259 302.933 56.4684 315 54.7909C325.072 53.3907 335.044 50.0466 344 45.294C346.604 43.9122 351.442 42.3356 352.84 39.5293C354.013 37.1726 351.93 34.112 351 32L362.285 39.0185L378.004 44.9699L392 48L392 23L379 22.9105L371 22.0787L359 22.9992L193 22.9992L184 22.571L175 22.9992L74 23L33 22.9854L21 22M406 22L407 35L442 32.0409L462 27L462 23L419 22.9854L406 22M464 23L464 24L478 27L479 27L484 25L484 26L482.611 26.1111L481 32L476 31L467 42L467 43L478 39L477 42L483 43L482 46L485 45L488 48L497.464 33L507 22L492 22.0895L484 22.9606L464 23M596 182C600.207 179.493 602.692 175.032 605.343 170.996C612.076 160.75 617.405 150.006 620.112 138C621.157 133.366 620.78 128.66 621.595 124C622.063 121.323 622.618 118.523 625.148 117.028C628.568 115.007 634.186 116 638 116C647.364 116 656.637 115.215 666 114.985C669.035 114.911 671.982 114.31 675 114.089C688.702 113.084 701.887 110.932 715 106.745C724.079 103.846 733.306 100.407 739.787 92.9846C748.362 83.1643 751 68.5738 751 56C751 47.1841 750.065 38.954 745.88 31C744.674 28.7098 743.35 26.1368 741.471 24.3179C737.564 20.5337 729.994 22 725 22L683 22L545 22L526 22C522.76 22 519.164 21.602 516 22.4298C512.541 23.3349 509.61 25.8379 507.001 28.1736C501.364 33.2195 495.581 39.6518 493.312 47C491.817 51.8448 490.857 57.9229 491.105 63C491.272 66.416 492.321 69.7451 493.295 73C495.459 80.2316 499.51 85.7786 505.001 90.9105C523.276 107.993 548.373 109.582 572 111.83C579.566 112.55 587.403 111.997 595 112C598.096 112.001 602.127 111.451 604.682 113.603C609.065 117.296 606.684 126.157 606.166 131C605.267 139.396 603.957 147.697 602.463 156C601.864 159.328 601.74 162.695 600.961 166C599.678 171.441 597.468 176.619 596 182M765 23L765 24C766.257 24.0408 767.763 23.9124 768.991 24.314C773.228 25.7008 774.004 28.9664 774 33L777 22L765 23M747 23L751.997 33L758 42C757.897 38.2336 758.267 36.2202 762 35L759 29L760.389 28.8889L762 23L747 23M407 38L406.996 87L406.019 98.9992L407.028 104.436L416 107.715L443 108.576L458 105.54L467 102.778L478 106.531L485 106.104L494 107.41L507 113.657L515 114.039L541 114L541 113C534.165 111.213 526.62 109.712 520.17 106.805C514.676 104.329 509.623 100.513 505.09 96.6003C501.143 93.1928 497.803 89.1736 494.69 85.0046C493.115 82.8961 491.722 79.9732 488.871 79.4884C486.985 79.1678 484.825 79.8179 483 80.2354C478.936 81.165 475 82.4871 471 83.6335C467.71 84.5763 464.347 84.8287 461 85.4599C455.54 86.4896 450.581 87.7672 445 88.0386C439.414 88.3102 434.601 90.001 430 86L457 85L457 83C441.24 82.9896 421.611 77.3532 412 64L436 75.5216L448 76L448 75L440 74L441 71L445 73L440 68L440 72L436 69L434 73L434 60L434 59L440 58C437.152 54.2593 433.719 56.6119 430 58L432 51L435 52L434 48L436 53L438 53L438 48L442 50L442 41L449 43L446 38L451 40L452 40L452 36L453 36L453 40L455 40L455 33L460 38L457 42L461 42L460 45L463 44L466 48L465.277 41.1698L462 35C465.599 35.7695 468.47 37.3222 471 34L468 35L469 32L459 30.7947L439 36.2438L425 38.0887L407 38M21 56L21 83L22.0278 93.2577L30 94.9992L46.0748 91.6597L54.0887 85.983L64.0895 88.909L83 88L76.5316 80.946L70 66C73.7869 68.066 74.4525 71.5993 76.9421 74.9606C79.5648 78.5016 83.1732 81.1943 87 83.3195C91.3056 85.7105 97.0611 87.2961 102 87.5301C104.333 87.6406 106.672 87.148 109 87.0386C124.029 86.3322 136.935 81.1653 150 74L145 64C147.783 65.9088 150.334 68.2162 153.286 69.8696C162.185 74.8528 172.947 77.0807 183 74.8766C187.15 73.9666 191.8 72.4769 195.715 70.8187C197.915 69.8865 200.305 67.9302 202.834 68.2153C205.948 68.5662 208.668 72.35 211.004 74.1775C215.442 77.6496 221.4 80.6875 227 81.6713C233.99 82.8993 242.088 83.1626 249 81.392C252.019 80.6186 255.087 79.4942 258 78.3896C259.617 77.7767 261.219 76.8329 263 76.8387C268.303 76.8561 275.4 84.2365 280 79L281 79L282 79C285.025 82.4615 290.896 80.459 295 79.8688C300.106 79.1347 305.293 78.1308 310 75.9576C317.575 72.4597 324.184 66.8614 332 64C329.062 68.6931 325.609 72.343 321.005 75.456C319.512 76.4651 316.207 77.8098 316.207 80.0031C316.207 81.8741 318.614 83.0917 320.02 83.7863C324.741 86.1184 330.851 87.3043 336 88.3333C341.521 89.4366 349.061 88.2155 353.961 85.3511C356.542 83.8423 358.816 80.4012 362.039 80.4028C365.684 80.4045 369.636 83.5852 373 84.8156C378.779 86.9291 385.875 87.737 392 88L392 71C383.496 71 373.967 70.9426 368 64L378 66.7407L392 67C392 63.8013 393.025 58.2828 390.972 55.5887C389.171 53.2254 384.641 53.0975 382 52.2538C376.108 50.3718 370.455 47.7812 365 44.8843C362.81 43.7213 359.934 41.3681 357.285 41.8773C355.198 42.2786 353.619 44.3434 352.13 45.6906C349.91 47.6999 347.661 49.2773 344.985 50.625C331.103 57.6186 315.712 62.3518 300 60.8302C293.596 60.2101 286.183 58.5529 280.576 55.331C277.982 53.8407 275.423 52.2439 273 50.4907C271.186 49.1781 269.338 47.2841 267 47.0178C264.836 46.7713 262.865 48.1539 261 49.0247C256.711 51.0275 252.369 53.1126 248 54.9321C239.265 58.5699 230.345 59.2143 221 58.9854C215.628 58.8537 209.366 58.1089 204.424 55.9097C199.476 53.7079 194.619 49.4661 189 49.3588C184.732 49.2773 180.063 50.9883 176 52.1497C171.156 53.5343 165.973 54.8685 161 55.6752C151.48 57.2195 141.482 56.0712 132 54.8195C125.858 54.0086 119.865 51.1938 114.09 49.0625C111.434 48.0825 108.92 46.3765 106 46.3765C103.108 46.3765 100.493 48.0259 97.9105 49.1304C91.6698 51.7999 85.4552 55.0217 78.9105 56.9105C75.6717 57.8452 72.2895 58.2913 69 59.0139C63.4018 60.2435 57.7953 61.6774 52 61.5448C41.4634 61.3036 31.1138 58.677 21 56M757 48L756.532 66L753.645 76.8519L758 80L756 77L761 77L760 73L756 75L757 68L758 68L758 71L759 71L758.069 61.9854L757 48z"/>
<path style="fill:#432e1a; stroke:none;" d="M519 52L520.029 54.4614L525.397 59.2245L526 73L529 73L529 57L536 56C531.694 51.5863 524.845 52.0038 519 52M576 70L567 68C568.415 70.8691 570.368 73.5451 573.985 73.5432C578.339 73.5409 580.902 68.7685 578.381 65.213C576.468 62.5148 572.924 61.2258 570 60L570 58L580 57C578.519 55.2222 577.397 53.8203 574.982 53.3318C571.218 52.5706 565.054 55.3011 565.882 59.9707C566.493 63.4151 570.386 64.3474 572.851 66.0455C574.527 67.1998 575.088 68.2569 576 70M608 53L607 75L611 75L611 53L608 53M538 54L538 65L540 75L541 66C545.444 66.7088 546.665 68.6057 547 73L549.556 71.9707L550.995 65.9992L550 54L548 54L547 62L541 62L538 54M627 66L624.679 68.5417L616 69C616.834 71.1789 617.575 72.9348 620.109 73.5239C624.087 74.4489 630.702 70.8669 629.288 66.0934C628.447 63.2551 625.385 62.3599 623.058 61.1234C621.376 60.23 620.328 59.3302 619 58C620.74 57.9794 624.648 58.485 625.654 56.5447C626.082 55.7205 625.395 54.8591 624.623 54.5849C622.878 53.9648 620.803 53.9097 619.059 54.6042C615.514 56.0155 614.619 59.8388 617.323 62.5702C619.798 65.0716 623.695 65.5524 627 66M652 75C655.884 73.6343 655.907 70.8163 656 67L662 67L656 64L656 58L668 57C664.56 54.0081 655.051 51.5414 652.603 57.1481C651.707 59.2011 652.005 61.8191 652 64L652 75M710 72C706.898 71.9895 703.938 72.0431 701.088 70.6296C700.13 70.1544 698.954 69.1698 698.954 67.9908C698.954 65.9494 701.637 66.0373 703.005 65.8889C706.121 65.5508 711.185 64.7843 711.704 60.8611C712.353 55.9518 707.178 53.0795 703.005 54.6296C697.399 56.7117 692.717 66.3468 695.889 71.9167C698.174 75.9291 705.53 77.1609 709.111 74.3565C709.841 73.7851 709.779 72.7549 710 72M556 56L556.001 67L559 76L558.999 65L556 56M679 74L681.417 72.9707L683 64L689 72L691 72L692 56L690 56L689 66L683.914 59.1659L681.133 57.2068L679.059 61.0201L679 74M671 58L671 76C671.791 75.2258 672.694 74.7488 673.131 73.679C674.946 69.2337 675.132 60.9193 671 58z"/>
<path style="fill:#ead180; stroke:none;" d="M701 63C701.881 62.9512 703.189 63.0247 704.101 62.7716L705.688 62.2623C707.412 60.8688 707.573 58.9916 704.906 58.7462C703.768 58.6415 702.759 59.5543 702.029 60.2786C701.328 60.973 701.263 62.1671 701 63M486 68L488 73L486 68z"/>
<path style="fill:#432e1a; stroke:none;" d="M717.509 71.3249L718.491 73.6751L717.509 71.3249z"/>
<path style="fill:#ead180; stroke:none;" d="M21 99L21 162C21 170.493 20.7589 180.96 29 186C29.0119 181.698 29.1387 177.317 30.4306 173.17C33.0861 164.644 38.319 157.297 41.4452 149C42.521 146.145 43.4453 143.032 43.8156 140C44.073 137.892 43.6167 135.251 44.5887 133.296C45.7421 130.977 47.7175 132.565 48.7022 134.117C49.816 135.873 50.2277 138.053 50.8827 140C52.3399 144.332 53.6968 148.509 54.6003 153C57.0912 165.381 56.8446 179.545 54.7415 192C54.2843 194.708 53.2729 197.293 52.7685 200C51.8474 204.943 51.5851 210.018 50.8688 215C50.388 218.344 49.5068 221.637 49.1705 225C48.6877 229.829 48.6642 235.187 49.2894 240C49.7697 243.698 50.7035 247.274 51 251L50 251L47.1698 217L49.2446 200.09L50.7407 194.83L51.2855 187L53 168L50.4205 145L46 137L42.0965 152L33.6659 170.09L32 191L22 180L21 180L21 209L21.6682 220.941L26 225L27 214L29 214L28 228L20 223L20.0394 251L20.9961 262L21 382L69 382L84 382L93 381.737L109 375.865L129 370L119.83 375.509L114 376.763L104 381L104 382L118 381.91L128 381.004L176 381.429L187 381.015L196 381.825L219 381L234 381.871L250 381L256.985 381.266L261.273 380.883L265.012 374L274.011 357.725L286.428 342.375L296.933 332.83L297.001 321L297 291L281 286.791L272.938 281.891L270.397 270L263 262L264.255 273L265.946 281L265.791 290L264 299L263 299L263.91 282L261 259L271 266C271.114 263.917 271.162 261.929 272.179 260.035C275.242 254.335 283.31 251.642 289 249.475C291.529 248.511 296.049 248.241 297.397 245.566C298.361 243.652 297.941 241.032 297.715 239C297.289 235.169 297.452 231.824 297.954 228.001C298.358 224.932 298.978 222.089 302.109 220.742C304.507 219.711 307.454 220.004 310 220C315.351 219.991 320.694 219.808 326 220.579C328.379 220.925 331.572 220.928 333.393 222.742C335.407 224.75 334.545 227.598 334 230C336.884 230 340.247 229.582 342.999 230.603C347.924 232.432 350.233 237.172 351 242L366 241.961L373 241.454L392 242L392.961 230L393 197L382 212L391.273 195L392 186L392 170L391 170L380 187C380 177.053 378.895 167.523 375.959 158C374.307 152.639 373.126 147.976 368 145L363.91 180L342 227L341 227C341.977 215.13 349.395 205.408 354.367 195C356.159 191.247 358.131 186.945 359.156 182.91C360.227 178.698 360.389 174.27 361.17 170C361.662 167.305 362.641 164.74 362.896 162C363.112 159.675 362.93 157.329 363.09 155C363.297 151.979 363.892 149.037 363.965 146.001C364.004 144.408 363.519 141.096 365.488 140.346C368.73 139.109 372.703 144.911 374.235 147C380.108 155.007 382.233 166.287 383 176L391.697 164L392 150L392 92L372 89.0617L363.17 85.6968L353 91.1497L335 92.5717L319 87.7646L309 82.4321L303 83.7145L291.91 86.7407L279 86.8156L272 85.6234L265 87.6975L257 87L251 90L252 87L250.001 94.0008L250 107L250.91 119L252.039 147L253 165L271 164.961L278 164.34L289 164.985L298 164.09L309 164L308.039 154L307.999 111L307.015 98L308 86L311.285 102L311.961 136L311.004 147L311.085 159L309.928 166.442L296 170.17L265 170.996L251.603 166.722L249.734 161L248.715 148L247 107L247 88L231 87.169L225 86.5046L217.09 83.2538L207.285 76.5918L202.91 74.0517L193 76.4452L178 79.9089L164 77.9854L156 76.0617L146 82.6597L139.17 85.7446L125 90.7646L98 92.7369L88 89.7068L80 91.8303L72 93.8264L63 93.3202L56 91.6937L49 95.5455L42 99.1613L21 99M673 119L673 120C677 121.353 680.863 123.076 685 123.985C697.607 126.755 710.536 125.769 723 123.119C729.655 121.704 737.423 120.039 743 116L732 108L751 112.679L777 116L777 105L764 105L764 103L777 103L777 101L761 101L750 98L777 98C775.746 90.4502 767.151 90.3001 761 89L761 88L777 88L760.17 86.5301L750.75 85.0424L743.621 94.9992L728 106.89L712.089 112.664L673 119z"/>
<path style="fill:#432e1a; stroke:none;" d="M481 90L481 92L484 92L484 90L481 90M257 92L256.039 138L256.914 146L258.938 155.427L268 157.999L292 157.829L300.397 153.853L301 147L301 134L301.039 113L301.981 102L301 91C296.246 94.3589 298.008 102.754 298 108C297.993 112.395 297.231 116.632 297.039 121C296.574 131.627 297 142.363 297 153L288 153.961L261 154L259.09 127L259 95L280 95L295 94L295 92L281 91.9854L257 92M476 94L476 96L486 95.8264L496 94L494.39 91.9591L484 93.6242L476 94M487 100L501 96C496.329 94.0592 489.711 95.6823 487 100M276 101L267 124L268 124L278 101L276 101M269 146L276 134L280.648 123.94L283.63 115.259L290 101L282.59 112L275.258 129.91L269 146M79 208L69 198L68.8295 215L67 226L68 226L71 204L77.6914 213L85.0154 227L88.1042 241.871L90.4552 247.255L91 253L92 253L89.9105 233.17L86.483 223L82.3796 213L81.9606 201L81.0394 187L83 173L82 173L80 175L81 157L80.9606 140L80.0895 132L80 111L89 111.039L106 110.09L119 109.91L127 108.735L151 107.961L161 107L162 134C159.63 134.026 157.277 133.989 155.002 134.769C149.071 136.8 145.15 142.787 145.184 149C145.206 153.082 147.089 157.062 148 161L141 163L135 147L133 147L124.833 168L120 180L119 180L114.129 165.961L116 135C104.701 138.349 95.9409 148.457 89.696 158C86.7894 162.442 84.2427 166.816 83 172L88.0177 164.999L94.7492 155L112 139C111.103 150.364 109.552 161.962 113.359 173C114.293 175.707 115.457 178.561 117.243 180.833C118.047 181.855 119.196 183.226 120.674 182.654C123.078 181.726 123.779 177.084 124.676 175C125.834 172.309 127.245 169.757 128.255 167C130.034 162.142 131.357 156.766 135 153L139.93 164L144.148 172.258L155 174L147 187L144 181L144.647 189L139.042 196L131.71 205.424L125.764 218L124.412 225.87L117.13 234.13L115 250L116.05 271L119.564 284.566L134 288C133.112 291.732 131.584 298.323 135.434 300.972C138.524 303.099 144.42 302 148 302C147.491 306.008 146.559 309.977 146.17 314C145.691 318.948 146 324.034 146 329C146 335.013 145.761 341.032 146.576 347C146.914 349.475 146.794 352.544 148.179 354.721C150.114 357.762 155.667 358.524 157.972 355.435C159.097 353.927 158.962 351.774 158.995 349.999C159.058 346.667 158.933 343.332 159.015 340C159.088 336.99 159.821 334.004 159.741 331C159.678 328.656 159.131 326.349 159.04 324C158.921 320.939 159.417 318.03 159.679 315C160.014 311.125 159.878 307.786 161 304L163 304C163.445 305.685 163.751 307.329 164.859 308.746C168.238 313.071 175.165 312 180 312C179.997 316.044 179.366 319.987 179.259 324C179.17 327.329 179.956 330.655 179.996 334C180.058 339.189 179.915 344.819 181.419 349.852C182.536 353.589 187.804 353.695 190.397 351.282C191.702 350.067 191.733 348.633 192 347L193 347C193.027 350.274 192.577 355.754 194.988 358.357C197.832 361.427 203.76 358.306 204.682 354.941C205.54 351.811 204.864 348.216 205.17 345C205.903 337.293 205.701 329.726 206.039 322C206.172 318.981 206.762 316.01 207 313L214 313C214 325.234 211.42 337.855 213.938 349.985C214.921 354.719 217.231 356.686 221.995 357.208C223.077 357.327 224.431 357.422 225.397 356.802C226.683 355.978 226.816 354.353 226.941 352.98C227.182 350.352 227 347.637 227 345L227 312L246 312L238 323C243.762 320.305 246.716 315.483 249.593 310C251.324 306.704 253.371 303.561 254.532 300C255.597 296.734 255.833 293.353 256.46 290C257.417 284.883 258.342 280.246 257.715 275C256.532 265.104 254.395 254.783 257.33 245C258.252 241.928 258.892 239.421 261 237C261 243.736 260.95 251.773 267.883 255.396C268.814 255.882 270.023 255.848 271 256L273.684 236L297.381 205L308 189C307.931 192.334 307.155 195.682 307.26 199C307.344 201.676 308.047 204.391 308.604 207C309.57 211.523 310.799 214.816 315 217L312.633 209L311.184 199L311.91 190L312 178L304.989 185.576L298.301 198L285.754 213.039L275.356 227L268.557 240L268 250C263.048 244.382 263.001 236.13 263 229C255.842 231.357 253.62 241.318 252.719 248C252.007 253.284 251.662 258.67 252.17 264C252.646 269.002 253.743 273.976 253.961 279C254.169 283.802 253.511 288.304 252.61 293C251.943 296.48 251.065 299.689 249.776 302.995C249.059 304.835 248.452 306.841 246.697 307.972C244.778 309.209 242.175 308.984 240 308.999L227 309L227 304C232.661 303.996 238.328 303.868 242.656 299.61C246.66 295.669 246.915 288.859 240.981 286.604C237.329 285.217 233.431 286.749 230 288L225.773 275.938L219 274L216 229C218.599 230.234 221.203 231.65 224 232.387C226.61 233.075 229.323 233.008 232 232.999C239.562 232.975 247.909 231.5 253.956 226.585C258.227 223.114 258.944 218.936 260.454 214C261.069 211.993 262.207 210.089 262.531 208C263.173 203.865 260.31 200.11 256.96 198.009C250.841 194.173 244.428 197.046 238 197.816C233.41 198.365 228.617 198 224 198C225.535 191.551 225.253 184.598 221.197 179.043C219.355 176.522 216.684 174.965 214.684 172.625C212.694 170.297 211.453 167.399 209.521 165.004C204.224 158.439 198.206 156.024 190 156C189.962 151.827 189.798 145.22 183.986 145.422C181.577 145.506 179.152 147.046 177 148L175.968 142.975L176.96 135L176.986 116L176.691 109.001L175.383 103.603L169.999 102.189L157 103L129 104.91L99 106.424L84.0008 107.005L78.027 108.603L76.5764 115L76 135L79 208z"/>
<path style="fill:#ead180; stroke:none;" d="M406 109L406 167L407 167L425 141L424.015 159L424.09 183L426 196L428 196C429.496 184.225 433.684 171.485 441 162L433.37 183L431 202C424.498 200.086 422.285 193.134 421.005 187C420.128 182.801 419.079 178.304 419.079 174C419.079 171.638 419.604 169.341 419.83 167C420.446 160.635 421.197 154.35 422 148L421 148L411.294 164L406.471 174L406 184L406.406 207L406 297C410.345 295.552 414.382 293.552 418.999 293.089C420.68 292.92 423.786 293.274 424.698 291.397C425.39 289.97 424.374 288.265 423.802 286.995C422.304 283.668 420.954 280.614 420.262 277C418.33 266.912 418.999 257.642 422.663 248C426.182 238.74 431.927 231.023 437.562 223C440.82 218.361 443.748 213.437 447.514 209.17C453.77 202.081 463.201 196.934 465 187C454.669 185.942 444.486 177.276 447.569 166C448.169 163.804 449.331 161.815 450.709 160.019C452.44 157.763 454.41 156.037 456.999 154.85C458.731 154.055 461.54 153.738 462.137 151.57C462.757 149.319 461.069 146.208 460.63 144C459.725 139.46 459.716 134.539 460.63 130C461.503 125.66 463.358 121.595 465.938 118.004C468.146 114.929 470.844 112.635 472 109L466.975 108.428L449 112.96L423 112.575L406 109M466 151L479.996 144.524L513 135C511.469 125.193 502.554 115.527 493 112.649C490.424 111.873 487.66 111.991 485 112.001C482.676 112.009 480.212 111.901 478 112.742C474.731 113.986 471.812 116.842 469.532 119.425C466.248 123.148 465.423 127.231 464.845 132C464.034 138.689 464.756 144.397 466 151M508 117L512.02 125L518 136L519 136C521.704 133.933 524.433 132.039 528 131.998C535.396 131.912 540.912 140.386 541.786 147C542.444 151.976 539.844 156.246 539 161C548.547 161.978 556.72 169.826 562.532 177C564.196 179.054 565.419 181.525 567.174 183.487C569.005 185.534 571.56 185.859 574.001 186.814C576.184 187.669 578.169 188.82 579.96 190.34C592.004 200.56 591.297 216.35 587 230C591.66 229.169 595.487 226.586 600 225.301C604.87 223.914 610.268 224.277 615 222.451C617.922 221.323 620.238 219.108 623 217.673C626.419 215.896 630.37 214.481 634 213.184C637.58 211.906 641.249 211.984 645 212.001C647.667 212.013 650.465 211.925 653 212.894C658.99 215.182 665.221 222.494 665.772 229C666.318 235.455 661.927 241.227 659.799 247C658.733 249.895 658.488 253.024 657.714 256C655.503 264.494 651.989 273.774 644.96 279.471C639.221 284.122 632.062 287.128 625 288.999C619.901 290.351 614.155 290.654 611.424 295.769C610.19 298.079 609.522 300.616 608.476 303.004C607.436 305.378 606.072 307.586 605.114 310C601.949 317.973 600.071 326.413 600 335C595.903 332.817 594.478 329.024 592.409 325C589.55 319.44 586.832 313.779 581 311L578.14 316.915L575.762 322.17L577.067 327.001L580.34 336L584.826 356L579 382L627 382L640 382L647.896 381.397L653.205 375.995L660.014 368.652L685 359.026L699 355L698.039 345L697.975 320L698 303L711 302.09L723 301.961L742 301L752.999 301.005L758.566 302.028L762 313L769.002 312.472L778 317L778 233L778 212L777.725 200L772.181 189L765 175L759.88 188L744 210L755.084 194L762.74 175L763 166L766 166L770.54 181L777 194L778 194L777.745 177L777.436 160L772.377 152L766.953 144L757 131L751.654 145.17L748.331 152.715L737.711 166.961L705 196.184L696.239 207L688 217L685.086 189L681 172L672.522 190L664.173 200L657 208L669.391 191L680 162L682 162L686.575 179L689.086 199L690 210C693.279 207.75 695.053 204.1 697.515 201C700.932 196.697 705.034 192.832 709 189.039C719.51 178.989 731.513 170.581 740.486 159C748.353 148.846 752.785 136.296 756 124L758 124L767.343 139L778 153L778 130L776.397 122.028L765 120.575L751 119.231L740 124.113L719 130.535L707 131L685 128.29L672 122.677L664 119.275L649 119.91L626 120C625.61 138.874 618.839 155.362 608.655 171C604.369 177.581 599.129 185.36 591 187L596.536 171L598.425 155L601.83 133L602 117C594.044 117 585.937 117.454 578 116.91C572.307 116.521 566.71 116.201 561 115.961C558.679 115.863 556.323 115.322 554 115.546C551.613 115.775 549.304 116.743 547 117.36C543.383 118.328 539.706 119.041 536 119.572C526.787 120.892 516.821 119.752 508 117z"/>
<path style="fill:#432e1a; stroke:none;" d="M286 128L278 148L284.091 137L286 128M290 129L287 141L292 129L290 129z"/>
<path style="fill:#ead180; stroke:none;" d="M470 176L460 170C462.989 171.242 465.877 172.81 469 173.699C486.672 178.733 507.598 177.058 524 168.727C526.722 167.344 529.344 165.739 531.482 163.532C537.276 157.553 541.007 145.274 534.57 138.344C530.568 134.035 525.214 134.783 521 138.228C514.592 143.468 509.569 150.238 503 155.32C500.049 157.603 496.731 159.998 493 160.725C483.314 162.614 474.604 157.004 465 157.008C460.244 157.01 455.502 157.84 452.603 162.055C449.501 166.565 449.616 174.326 453.249 178.443C455.705 181.225 462.781 185.181 466.451 182.947C468.671 181.595 469.446 178.316 470 176M150 156C155.625 154.345 160.556 150.96 166.085 148.955C167.639 148.392 170.793 147.903 170.793 145.701C170.793 143.96 169.158 142.434 167.937 141.418C164.234 138.337 158.284 136.889 154.059 139.742C148.723 143.345 150 150.419 150 156z"/>
<path style="fill:#432e1a; stroke:none;" d="M291 138L289 147L290 147L293 138L291 138z"/>
<path style="fill:#ead180; stroke:none;" d="M181.985 148.997C177.219 150.737 174.912 156.062 170.957 158.945C165.533 162.9 160.306 162.585 154 163.424C151.375 163.774 145.933 163.441 144.662 166.379C142.858 170.551 149.624 170.933 152 170.985C156.215 171.076 159.919 170.144 164 169.285C167.786 168.488 171.457 167.732 175 166.099C179.491 164.029 184.056 160.687 186.061 155.999C187.476 152.689 186.794 147.241 181.985 148.997z"/>
<path style="fill:#432e1a; stroke:none;" d="M450 201L444.184 180L446 157C445.186 157.255 443.977 157.327 443.292 158.015C440.915 160.406 442.289 163.96 441.83 167.015C440.531 175.663 441.708 183.812 444.785 192C446.024 195.299 447.161 198.877 450 201z"/>
<path style="fill:#ead180; stroke:none;" d="M197 308C202.102 307.997 208.317 308.228 212.941 305.686C215.017 304.544 217.371 301.926 215.342 299.607C212.416 296.265 207.652 301.502 205.024 297.664C202.298 293.682 206.134 286.12 200.721 283.603C198.23 282.445 194.67 282.996 192 283C184.252 283.012 176.735 284.936 169 285L170 281C161.421 275.52 154.828 264.301 154.119 254C153.889 250.669 154.739 247.312 155 244L156 244C156 247.614 155.668 251.424 156.259 255C158.241 266.985 166.063 279.702 179 281L179 280C171.167 274.797 163.637 267.897 162.21 258C161.339 251.965 162.742 245.999 163 240L164 240L164 244L167 243C166.197 244.671 164.986 246.463 164.585 248.29C164.11 250.453 164.688 252.839 164.954 255C166.266 265.688 173.574 275.402 184 278.857C187.643 280.064 192.191 278.85 196 279.04C201.399 279.309 206.192 283.074 210.867 278.767C213.446 276.39 214.506 273.293 215.37 270C216.14 267.062 216.943 264.061 216.871 261C216.712 254.216 214.156 247.687 213.289 241C212.987 238.668 212.987 236.345 213.165 234.004C213.355 231.503 213.898 229.184 211.837 227.292C208.532 224.255 204.517 226.736 201 228L213 219L212 224C216.364 225.743 220.392 228.074 225 229.24C232.725 231.195 242.059 229.553 249 225.806C253.376 223.445 256.226 221.003 257 216C252.712 217.016 248.501 219.226 244 218.877C238.695 218.465 231.906 213.795 231.668 208.002C231.568 205.552 233.045 203.168 234 201L211.004 205.971L200 213L204 208C200.658 203.989 196.856 200.271 195.561 195C193.096 184.966 201.233 175.061 211 174C208.588 166.905 202.339 161.643 195 160.121C192.736 159.652 190.204 159.168 188 160.117C183.091 162.232 180.051 167.32 175 169.532C171.796 170.936 168.366 172.135 165 173.08C162.372 173.818 159.481 174.152 157.564 176.314C155.071 179.126 155.045 183.467 155.004 187C154.907 195.384 157.508 203.65 156.91 212C156.453 218.375 154.379 224.72 150.806 229.999C148.939 232.758 145.875 235.201 144.603 238.285C143.746 240.362 144.044 242.809 143.83 245C143.501 248.378 142.861 251.583 143.171 255C144.307 267.527 147.758 280.105 160.424 285.285C167.334 288.112 175.701 286.985 183 287C185.277 287.005 187.813 286.78 189.985 287.603C193.472 288.924 195.981 292.424 196.721 296C197.511 299.815 197 304.119 197 308z"/>
<path style="fill:#432e1a; stroke:none;" d="M91 174L102 163C102 169.597 101.921 176.555 103.553 183C106.053 192.868 112.785 202.212 121 208L125.626 198L132 178L130 178L121 206C117.323 202.293 113.41 198.499 110.688 194C104.377 183.571 103.295 171.898 104 160C98.1022 161.62 92.9517 168.37 91 174z"/>
<path style="fill:#ead180; stroke:none;" d="M472 178L469.871 187L466.649 196L468.834 214L472.089 248L472.675 261L468.703 278.83L462.676 289.996L454.939 299.209L451.09 311L447.428 322L444 352L444.184 364L447 382L468 382L461.325 358L462.05 333L463.565 324L467 314L467.321 362L473 382L487 382L480.255 359L480 313L482 313L482 321L483 321L486 317L482.729 325L482.999 335L483.184 346L484.819 354L486.839 366.91L492 382L553 382L566.999 381.999L573.914 380.397L578.079 367L578.169 348L577.402 341L572 323L553 327L553 324C556.161 323.613 558.936 322.513 562 321.69C568.435 319.961 575.359 318.727 578.566 311.985C581.068 306.726 580 299.659 580 294L577 294C576.814 296.894 576.239 299.31 575.111 302C574.217 304.133 573.234 306.181 571.722 307.956C568.49 311.753 563.067 314.71 558 314.842C555.195 314.915 552.585 313.829 550 312.88C544.238 310.764 538.583 308.049 534.001 303.895C530.707 300.909 527.915 297.559 525.273 294.001C523.872 292.113 522.379 289.293 520.286 288.083C517.721 286.599 514.336 288.965 512 290L531 274.771L542 271C541.31 272.071 539.988 273.52 540.148 274.934C540.49 277.953 545.668 279.552 548 280.465C556.06 283.622 564.57 286.509 573 288.497C579.376 290.001 585.542 289.003 592 289C595.963 288.998 600.059 289.287 604 288.816C607.037 288.452 609.989 287.466 613 286.923C627.259 284.351 642.311 280.047 650.438 267C652.875 263.087 653.98 258.45 655 254C646.578 259.209 639.136 266.594 629 268.621C625.431 269.335 620.703 269.478 617.17 268.529C606.795 265.744 600.463 255.524 602.329 245C603.566 238.027 609.331 233.314 612 227C602.868 227.722 593.541 230.364 586.089 235.904C579.639 240.701 574.75 248.559 566 249.606C563.16 249.946 560.657 248.75 558 247.97C555.083 247.113 552.038 246.762 549.286 245.402C545.926 243.742 543.086 241.09 540 239C536.878 246.148 534.218 252.615 527.999 257.736C524.172 260.888 519.789 262.42 515 263.399C510.276 264.365 506.686 264.353 502 263.231C491.744 260.775 483.224 253.101 479.684 243C476.239 233.169 478.077 222.31 482.015 213C483.748 208.903 485.915 204.552 489.21 201.478C494.208 196.815 500.338 195.023 507 195.001C511.877 194.985 516.481 195.342 521 197.349C527.23 200.116 531.921 204.65 536 210L552.286 187.684L563 185L547 167.9L538.17 163.542L530.985 168.626L519 175.188L506 178.676L499 180.624L487 180.91L472 178z"/>
<path style="fill:#432e1a; stroke:none;" d="M132 172L132 177L134 177L134 172L132 172M90.3333 175.667L90.6667 176.333L90.3333 175.667M141 175L144 180L141 175z"/>
<path style="fill:#ead180; stroke:none;" d="M210 205C208.816 202.034 206.906 199.182 206.358 196C204.994 188.076 210.974 182.932 216 178C212.338 176.92 208.574 176.596 205.04 178.457C198.679 181.806 197.24 189.603 199.019 196C199.676 198.362 200.466 200.839 202.303 202.566C204.493 204.624 207.167 204.845 210 205z"/>
<path style="fill:#432e1a; stroke:none;" d="M88 178L88 180L90 180L90 178L88 178M134 179L134 185L136 185L136 179L134 179M138 179L138 183L140 183L140 179L138 179M741 181C739.228 184.562 736.864 187.668 734.695 191C732.096 194.994 729.851 199.2 726.96 203C721.995 209.527 716.036 215.311 710.349 221.2C701.749 230.106 691.147 240.818 691 254C682.663 246.353 679.697 233.537 676.911 223C675.667 218.295 674.386 213.881 674 209L668 216L671 212L672 212L674.161 221L682.862 247L687.895 254.663L690.857 256.079L693.459 250.995L699.924 237L723.711 211L740 189L738.184 199L737.826 210L736 219L744 210L740 215L739 215L741.156 196L743 181L741 181M371 182L366.36 196L359.515 211L355 223L356 223L365.08 204L370 191L372 191L372.3 205L376 223L379 223L382 213L377 218L375.184 207L373 182L371 182M164 195L165 195C167.095 191.713 169.178 188.217 173.004 186.742C178.845 184.491 185.76 187.614 188.543 193.015C190.323 196.469 190.425 201.254 189.61 205C187.737 213.6 176.121 222.883 168.429 214.656C163.798 209.703 164 202.272 164 196C159.448 203.601 163.89 218.037 173 220.237C181.309 222.243 188.319 214.997 191.073 208C194 200.562 193.158 192.054 186.79 186.558C182.449 182.81 175.113 181.664 170.21 185.005C166.828 187.311 164.782 191.119 164 195M86.3333 185.667L86.6667 186.333L86.3333 185.667z"/>
<path style="fill:#ead180; stroke:none;" d="M581 234C575.928 236.039 570.799 240.545 565 239.427C557.443 237.969 552.404 230.284 552.04 223C551.53 212.778 555.414 201.194 565 195.988C568.227 194.236 572.435 193.933 575.83 195.347C578.738 196.558 581.083 198.749 584 200C582.57 196.801 580.713 193.983 577.829 191.854C570.592 186.512 556.89 186.09 550.093 192.225C545.05 196.777 539.783 205.081 539.225 212C538.898 216.041 540.43 220.011 540.829 224C541.161 227.314 540.567 230.863 541.938 233.996C544.238 239.251 549.703 241.9 555 243.156C565.141 245.561 576.083 244.455 581 234z"/>
<path style="fill:#432e1a; stroke:none;" d="M40 189L29 214L30 214L40 195L37.1698 219L37.8341 247L44 272L45 272L41.375 259L39.0394 237L39.1698 220L40.8302 208L41.0394 198L42 189L40 189M411 189L412 197L413 197L413 189L411 189M135 190L135 194L136 194L137 190L135 190M173.39 191.028C168.57 194.09 166.892 202.963 168.894 207.981C170.802 212.765 176.441 214.25 180.815 211.682C186.129 208.562 187.482 200.239 184.682 195.019C182.63 191.195 177.502 188.416 173.39 191.028M409 194L409 197L410 197L409 194M438 197L436 205L439 200L440 202L441 202L440 197L438 197M408.333 199.667L408.667 200.333L408.333 199.667z"/>
<path style="fill:#ead180; stroke:none;" d="M529 251C525.263 252.958 521.361 255.565 517 255.641C500.859 255.923 492.938 233.675 499.438 221C501.435 217.107 504.864 212.579 509.015 210.858C515.462 208.185 523.307 212.151 527.471 217.094C529.862 219.933 531.675 223.467 532.779 227C534.59 232.791 533.463 238.14 533 244C536.614 239.863 536.974 234.333 536.999 229C537.038 220.771 535.928 213.347 529.79 207.21C522.607 200.027 512.561 198.876 503 199.95C497.018 200.622 491.416 202.241 487.418 207.093C485.324 209.636 484.136 212.918 483.079 216C479.249 227.169 480.016 241.914 488.185 250.985C498.299 262.215 519.401 263.89 529 251z"/>
<path style="fill:#432e1a; stroke:none;" d="M413 202L413 207L414 207L413 202M441 204L441 207L443 207L443 204L441 204M435 206L436 207L435 206M279 246L280 246L287.517 232L294.211 224L301 211L305 216C304.726 214.19 304.169 208.343 301.166 208.921C300.081 209.13 299.315 210.287 298.792 211.153C297.263 213.688 296.159 216.454 294.649 219C289.158 228.253 280.006 234.565 279 246M414 209L414 213L416 213L416 209L414 209M427 220L428 220L435 209L427 220M416 215L416 218L417 218L416 215M417 219L417 222L418 222L417 219M425.333 221.667L425.667 222.333L425.333 221.667z"/>
<path style="fill:#ead180; stroke:none;" d="M301 224L301 225L322 225.661L330 223L315 223.09L301 224z"/>
<path style="fill:#432e1a; stroke:none;" d="M418 223L418 226L420 226L420 223L418 223M423 224L421 231L425 224L423 224M767 226L767 229L768 229L767 226M66.3333 227.667L66.6667 228.333L66.3333 227.667z"/>
<path style="fill:#ead180; stroke:none;" d="M332 227L311 231.961L301.028 233.603L300.001 240L300.094 255.999L302.514 261.972L315 263L327.682 261.397L329.039 250L332 227z"/>
<path style="fill:#432e1a; stroke:none;" d="M766 230L766 234L767 234L766 230M64.3333 231.667L64.6667 232.333L64.3333 231.667z"/>
<path style="fill:#ead180; stroke:none;" d="M126 231L121.564 232.859L118.464 242L119.7 269L121.514 280.721L130.981 284.362L135.122 282.837L131.638 273.999L130.715 254L130.437 238.285L126 231M333 236L340 241L332 238L332 243L340 241L341 241C339.539 246.477 336.611 248.623 331 249L331 254C334.721 254 339.507 254.729 342.87 252.821C348.394 249.687 350.86 239.363 346.411 234.434C343.775 231.513 337.081 230.926 334.029 233.444C333.312 234.035 333.245 235.261 333 236z"/>
<path style="fill:#432e1a; stroke:none;" d="M63.3333 234.667L63.6667 235.333L63.3333 234.667M764 235L763 243L765 243L766 235L764 235M73 239L71 253L72 253L73 247L76 248L75 239L73 239z"/>
<path style="fill:#ead180; stroke:none;" d="M133 239L133.171 269L136.514 278.932L145 278L138.379 254L140 239L133 239M350 244C348.843 248.91 345.332 254.233 340 255.258C337.156 255.804 333.89 255.058 331 255C330.958 256.28 331.083 257.791 330.682 259.04C330.368 260.018 330.093 261.053 329.397 261.853C325.345 266.508 319.36 263.68 314 264.286C309.965 264.743 303.996 266.235 300.589 263.142C297.208 260.074 298.003 253.108 298 249C291.269 250.158 283.729 253.206 278.019 256.991C275.675 258.545 272.467 261.43 274.662 264.387C276.457 266.806 280.245 268.021 283 268.83C289.332 270.69 295.456 272.338 302 273.271C306.002 273.841 310.002 273.795 314 274.286C319.683 274.985 325.294 276.285 331 276.83C338.299 277.528 345.719 277.415 353 278.285C362.041 279.367 370.901 280.637 380 281.039C382.894 281.167 385.981 282.184 388.867 281.812C391.529 281.47 392.538 279.49 392.721 276.981C392.915 274.336 392.155 271.644 392.039 269C391.832 264.262 392.214 259.694 392.711 255C392.97 252.543 393.279 248.824 391.142 247.028C388.917 245.158 383.774 245.789 381 245.424C370.697 244.072 360.268 245.906 350 244z"/>
<path style="fill:#432e1a; stroke:none;" d="M762 244L762 247L763 247L762 244z"/>
<path style="fill:#ead180; stroke:none;" d="M532.333 245.667L532.667 246.333L532.333 245.667z"/>
<path style="fill:#432e1a; stroke:none;" d="M760 248L758 258L759 258L762 248L760 248M51.3333 252.667L51.6667 253.333L51.3333 252.667M70.3333 254.667L70.6667 255.333L70.3333 254.667M78 255L76.2994 270L74.6759 285L72.2855 298L72 311L73.8873 334L81.8997 351.985L88 357.534L95.0656 353.98L102 340L90.9606 353.883L83.5177 349.959L75.4676 333L74 312L76.1944 282L77.7917 275L78.4244 268L78 255M53 257L53 260L54 260L53 257M68.3333 258.667L68.6667 259.333L68.3333 258.667M756 259L756 262L758 262L758 259L756 259M67.3333 261.667L67.6667 262.333L67.3333 261.667M91 261C87.9503 265.354 88.8986 271.804 88.2855 277C87.7005 281.958 88.0554 287.017 87.9961 292C87.9603 295.017 87.3395 297.998 87.3395 301C87.3395 307.283 88.3182 313.763 89.0509 320C89.7611 326.045 91.3682 333.88 97 337L97.3287 328L101.923 316L108 307C108.796 313.295 109.273 319.75 110.324 326C111.296 331.777 113.262 337.5 115.208 343C117.056 348.22 118.223 353.29 124 355C124.057 348.227 125.677 343.274 130 338L131.884 353L136 361C135.311 356.311 133.445 351.797 133.595 347C133.689 344.006 134.036 340.987 134.266 338.001C134.381 336.507 134.738 334.745 133.897 333.377C132.183 330.584 129.428 333.494 128.16 335.063C124.755 339.276 122.653 344.67 122 350L116.341 339L112.576 320L110 298L103.528 307.06L98.375 318L93 328L89.2091 309L89.0185 288.004L90.946 277.961L90.4282 267.09L91 261M743.333 261.667L743.667 262.333L743.333 261.667M755 263L755 266L756 266L755 263z"/>
<path style="fill:#ead180; stroke:none;" d="M273 267L275.434 281.526L287 286.438L295 288.74L302 289.17L316 290.91L328 291.259L337 293.557L348 294.174L362 295.999L379 296.015L387.941 295.307L393 285L382 283.184L360 281.83L342 279.17L331 278.829L321 277.17L298 274.537L273 267z"/>
<path style="fill:#432e1a; stroke:none;" d="M754.333 267.667L754.667 268.333L754.333 267.667M752.667 270.333L753.333 270.667L752.667 270.333M45 273L49 279L45 273M61 273L61 275L63 275L63 273L61 273M60 277L60 281L61 281L60 277z"/>
<path style="fill:#ead180; stroke:none;" d="M221 300L231 300.942L241.057 296.736L240.643 290.032L233.171 289.954L228.51 290.137L226.977 286.976L224.411 279.323L218.661 278.583L220.126 286.039L221 300M547 285C544.039 283.899 541.577 282.563 539 280.719C537.473 279.627 535.952 278.181 534.019 277.878C531.492 277.483 529.172 279.507 530.176 282.079C532.218 287.31 540.596 290.765 545.39 287.556C546.282 286.959 546.527 285.858 547 285z"/>
<path style="fill:#432e1a; stroke:none;" d="M51 281C52.7693 285.563 55.2073 288.643 60 290L60 282L59 282L59 288L51 281z"/>
<path style="fill:#ead180; stroke:none;" d="M137 298L161 299.91L184 300.039L193 301C192.941 298.228 193.239 293.815 190.486 292.117C188.264 290.748 184.463 291.926 182 291.985C175.662 292.138 169.222 292.153 163 290.776C159.474 289.996 155.997 288.34 153.09 286.205C151.343 284.923 149.851 282.974 147.83 282.107C143.867 280.407 139.618 283.635 138.032 287.094C137.489 288.278 137.322 289.72 137.174 290.999C136.908 293.313 137.002 295.676 137 298M546 307L543.686 292.603L536.001 289.392L528 281C527.127 281.308 525.783 281.525 525.006 282.185C521.32 285.316 524.313 288.977 526.67 292C531.801 298.583 538.131 304.08 546 307M207 296L218 295C217.998 291.923 218.706 287.203 216.682 284.604C214.535 281.848 208.926 283.634 207.639 286.475C206.485 289.021 207.234 293.199 207 296M550 287C550.127 288.672 550.088 290.315 551.028 291.796C554.068 296.587 560.862 294.991 565 293L565 291L550 287z"/>
<path style="fill:#432e1a; stroke:none;" d="M629 291L617.971 317L613.026 336.91L606 360L594.129 348L586 337L598.289 356.981L605.686 360.824L608.42 355.995L612.59 344L615.331 337L620.464 316L625.174 303L631 291L629 291M667 291L667 295L668 295L667 291z"/>
<path style="fill:#ead180; stroke:none;" d="M567 293L567.604 295.824L574 296L574 294L567 293M583 294L582.831 301.999L582.689 307.505L588.101 313.108L596 326L597 326L601.238 312L609 293L599 293.91L583 294z"/>
<path style="fill:#432e1a; stroke:none;" d="M108 294L108 296L118 296L118 294L108 294M271 294L271 297L272 297L271 294z"/>
<path style="fill:#ead180; stroke:none;" d="M312 294L312.91 307L313 320L324.921 304.015L328 294L312 294M332 295L334.054 318.961L335.871 327.039L336 345L342.923 337.999L352.576 327.001L359.686 317.91L359 299L332 295M299 330L308.972 322.985L310 314L310 296L300.028 299.853L299 309L299 330z"/>
<path style="fill:#432e1a; stroke:none;" d="M666 296L666 300L667 300L666 296z"/>
<path style="fill:#ead180; stroke:none;" d="M337 355C331.89 351.873 333 345.341 333 340C333 335.684 333.205 331.308 332.91 327C332.727 324.318 332.157 321.69 332.039 319C331.894 315.67 332.138 312.327 331.91 309C331.704 305.98 331.13 303.03 331 300C327.217 301.355 326.399 304.658 324.496 308C321.867 312.616 318.609 317.144 314.91 320.961C306.385 329.757 295.919 336.682 287.004 345.09C277.013 354.511 267.87 368.182 266 382L393 382L392.039 372L392 351L392.039 324L393 315L386.371 322.001L376.115 337L365.965 349.985L354.09 361.04L348.309 368.999L343.787 374.582L336 372.073L320.272 357.999L313 338L317 337C317 345.316 317.754 354.124 323.419 360.826C326 363.88 329.668 365.932 333 368.047C335.479 369.62 340.339 373.984 343.529 372.698C345.644 371.845 346.716 368.743 347.915 366.999C350.206 363.667 353.118 360.831 356 358.015C359.818 354.284 364.094 351.077 367.56 346.996C373.314 340.223 377.637 332.273 382.72 325C384.594 322.318 386.473 319.611 388.495 317.039C390.036 315.08 392.01 313.309 392.683 310.83C393.825 306.628 393 301.336 393 297C387.009 298.554 381.728 303.027 377 306.924C366.429 315.635 356.777 325.806 347.74 336.086C342.913 341.576 337.814 347.496 337 355z"/>
<path style="fill:#432e1a; stroke:none;" d="M112 298L112 299L121 300L121 298L112 298z"/>
<path style="fill:#ead180; stroke:none;" d="M406 382L417 382L416 354L416.09 338L416.961 330L418.989 309L425 298L411.429 301.556L407.013 304.549L406 312L406 326L406 382M420 382L444 382C439.744 369.212 436.598 355.634 438.129 342C438.399 339.597 439.31 337.365 439.755 335C440.324 331.985 440.627 328.991 441.375 326C443.589 317.142 449.081 309.167 450 300L441 300.507L428.225 299.029L424.363 305.001L421.439 319L421 341L420.961 373L420 382z"/>
<path style="fill:#432e1a; stroke:none;" d="M262.333 300.667L262.667 301.333L262.333 300.667M664 302L664 306L666 306L666 302L664 302z"/>
<path style="fill:#ead180; stroke:none;" d="M150 303L150.039 344L151 355L156 355L156.015 318L157 303L150 303M178 303L177 308L180 308L178 303z"/>
<path style="fill:#432e1a; stroke:none;" d="M260.333 304.667L260.667 305.333L260.333 304.667z"/>
<path style="fill:#ead180; stroke:none;" d="M703 307L715 310.17L727 310.985L745 310L755.972 308.421L757 304L734 304.194L703 307z"/>
<path style="fill:#432e1a; stroke:none;" d="M115 307L115 309L143 308L133 306L115 307M663 308L663 312L664 312L663 308M120 310L120 312L132 311.999L141 309L120 310M262 320L274.999 314.139L282 309L269.001 314.822L262 320M674.333 309.667L674.667 310.333L674.333 309.667z"/>
<path style="fill:#ead180; stroke:none;" d="M194 311L194.17 323L195.91 337L197 357L202 357L202.961 339L203 312L194 311M701 311L702.171 342L704 358L716 359.829L725 360.09L741 361L754.397 359.397L757.271 347L758.17 336L758.985 326L758 313L746 318.262L731 320.025L720 319.457L701 311z"/>
<path style="fill:#432e1a; stroke:none;" d="M125 314L125 316L138 316L138 313L125 314M662 313L662 317L663 317L662 313z"/>
<path style="fill:#ead180; stroke:none;" d="M762 315L763 324C764.408 324.405 765.694 324.534 766.816 325.603C767.557 326.309 768.406 327.059 768.768 328.059C770.611 333.148 766.403 336.092 762 337C762.056 338.702 761.826 340.974 763.028 342.387C764.059 343.598 765.555 343.606 767.019 343.512C770.297 343.302 774.263 342.344 776.397 339.656C778.32 337.233 777.995 333.903 778 331C778.005 328.079 778.333 324.785 777.258 322.004C774.694 315.377 768.279 313.527 762 315z"/>
<path style="fill:#432e1a; stroke:none;" d="M279.333 315.667L279.667 316.333L279.333 315.667z"/>
<path style="fill:#ead180; stroke:none;" d="M223 317L219.079 341L220 353L225 353L224.09 344L224 331L223 317z"/>
<path style="fill:#432e1a; stroke:none;" d="M347.333 317.667L347.667 318.333L347.333 317.667M277 318L270 328L283 324L283 323L275 325L279 318L277 318M660 318L660 321L662 321L662 318L660 318M671 319L671 322L673 322L673 319L671 319M249 325L261 320L249 325M289 320L291 322L291 320L289 320M659.333 322.667L659.667 323.333L659.333 322.667M344.333 324.667L344.667 325.333L344.333 324.667M669 324L665.905 333.83L659 347C665.451 341.575 669.878 332.283 671 324L669 324M291 325L291 327L293 327L293 325L291 325M286 326L286 328L289 328L289 326L286 326M658.333 326.667L658.667 327.333L658.333 326.667M343 327L343 331L344 331L343 327M176 329L176 331L178 331L178 329L176 329M168 330L168 332L175 332L175 330L168 330M104 333L105 337L106 337L106 333L104 333M167 336L167 338C171.571 337.962 176.37 338.173 179 334L167 336M654 335L655 336L654 335M102.333 337.667L102.667 338.333L102.333 337.667M242 338L242 340L252 339.09L264 339L264 337L242 338M42 338L43 352L44 352L42 338M63 339L63 342L64 342L63 339M302 353L303 353L313 340C307.699 342.492 303.544 347.332 302 353M106 341L106 348L107 348L106 341M674.333 341.667L674.667 342.333L674.333 341.667M242 343L242 344L256 344.999L264 342L242 343M64.3333 344.667L64.6667 345.333L64.3333 344.667z"/>
<path style="fill:#ead180; stroke:none;" d="M761 350L778 348L778 344L770 346.611L761.722 347.667L761 350z"/>
<path style="fill:#432e1a; stroke:none;" d="M107 350L108 355L109 355L109 350L107 350M245 352L245 354L256 352.174L269 352L261 351L245 352z"/>
<path style="fill:#ead180; stroke:none;" d="M760 353C759.714 356.588 759.463 360.916 756.686 363.566C754.303 365.84 751.098 365.953 748 365.996C743.047 366.065 737.934 366.3 733 365.83C730.656 365.607 728.36 365.129 726 365.042C722.276 364.906 718.679 365.364 715 364.536C711.388 363.724 707.515 363.132 704 361.988C701.667 361.229 699.516 359.822 697 359.766C694.598 359.713 692.248 360.789 690 361.492C686.298 362.65 682.681 363.976 679 365.179C674.501 366.649 667.838 367.713 664.646 371.648C662.182 374.686 664.935 380.047 668.133 381.397C670.212 382.274 672.798 381.995 675 382L688 382L778 382L778 353L760 353z"/>
<path style="fill:#432e1a; stroke:none;" d="M44 356L44 362L45 362L44 356M109.333 356.667L109.667 357.333L109.333 356.667M297 357L297 359L299 357L297 357M110 359L111 363L112 363L112 359L110 359M224 361L224 363L240 362.09L256 360L245 359.83L224 361M158 361L158 365L163.835 365.559L170.039 368.556L179 368.086L187 365L167 365L167 364C172.844 364 181.612 365.864 185 360L175 360.91L158 361M295 360L294 364L295 364L297 360L295 360M32.3333 363.667L32.6667 364.333L32.3333 363.667M45 365L45 368L46 368L45 365M221 370L233 368.675L244 367L244 365L236 365.259L230 366.745L221 370M33 367L33 370L34 370L33 367M47.3333 370.667L47.6667 371.333L47.3333 370.667M290.333 370.667L290.667 371.333L290.333 370.667M188 371L188 373L191 373L191 371L188 371M237 372L237 374L249 373L249 371L237 372M48.3333 373.667L48.6667 374.333L48.3333 373.667M288 373L287 377L290 373L288 373z"/>
<path style="fill:#ead180; stroke:none;" d="M658 376L656 382L661 382L660 376L658 376z"/>
<path style="fill:#432e1a; stroke:none;" d="M286.333 378.667L286.667 379.333L286.333 378.667z"/>
</svg>
